<svg fill="#000" height="500" width="500" xmlns="http://www.w3.org/2000/svg">
  <rect rx="5%" height="100%" width="100%"></rect>
  <g fill="#fff">
    <mask id="a">
      <path d="M98.7 185.4c3.5-1.4 7.1-2.6 10.8-2.7 2-.1 3.4 1.4 4.5 2.9.5 3.6.2 7.3.2 10.8v122.1c0 3.6.2 7.3-.2 10.9-1.8 1.7-4.2 2.8-6.7 2.6H90.8c-2.5.1-5-.9-6.7-2.6-.4-3.6-.2-7.3-.2-10.9V209.6c.4-5.8 1.9-12 5.9-16.4 2.6-2.9 5.4-5.9 8.9-7.8Z"></path>
      <path d="M388.1 183.1c4.3-1.1 8.6.9 12.6 2.5 8.8 4.6 14.7 14 15 23.9-.1 38.5 0 77.1 0 115.6 0 1.9-.4 3.8-1.7 5.3-2.4 2.1-5.7 1.6-8.6 1.7-5.5-.2-11 .2-16.4-.2-1.6 0-2.5-1.6-3.5-2.7-.6-3.5-.2-7.2-.3-10.7V193.1c.11-3.5-.9-8 2.8-10Z"></path>
    </mask>
    <rect mask="url(#a)" rx="7.5%" height="100%" width="100%"></rect>
    <rect height="10%" width="3.5%" rx=".5%" y="46.5%" x="8.2%"></rect>
    <rect height="12.5%" width="3.5%" rx=".5%" y="45.25%" x="11.2%"></rect>
    <rect height="5%" width="5%" rx=".5%" y="55.5%" x="24.9%"></rect>
    <rect height="30%" width="5%" rx="1%" y="36.5%" x="32.2%"></rect>
    <rect height="5%" width="5%" rx=".5%" y="43.5%" x="39.75%"></rect>
    <rect height="30%" width="5%" rx="1%" y="36.5%" x="47.2%"></rect>
    <rect height="5%" width="5%" rx=".5%" y="55.5%" x="54.7%"></rect>
    <rect height="30%" width="5%" rx="1%" y="36.5%" x="62.2%"></rect>
    <rect height="5%" width="5%" rx=".5%" y="43.5%" x="69.7%"></rect>
    <rect height="12.5%" width="3.5%" rx=".5%" y="45.25%" x="84.8%"></rect>
    <rect height="8.5%" width="3.5%" rx=".5%" y="47.25%" x="86.7%"></rect>
    <rect height="2.5%" width="4.5%" rx=".5%" y="50.25%" x="89.2%"></rect>
  </g>
</svg>